#Comment line ignore any data following # character 
#Hierarchical Translation and Rotation (.htr) file 
[Header]	
#Header keywords are followed by a single value 
FileType HTR		#Single word string
DataType HTRS		#Translation followed by rotation and scale data
FileVersion 1		#integer
NumSegments 84		#integer
NumFrames 2		#integer
DataFrameRate 30		#integer, data frame rate in this file
EulerRotationOrder ZYX
CalibrationUnits mm
RotationUnits Degrees
GlobalAxisofGravity Y
BoneLengthAxis Y
ScaleFactor 1.00
[SegmentNames&Hierarchy]
#CHILD	PARENT
MASTER GLOBAL
root MASTER
chest root
L_mid_tent01 root
R_mid_tent01 root
spine01 root
Bip01_Neck chest
L_humerus chest
R_humerus chest
weapon_bone chest
Bip01_Head Bip01_Neck
eye_left_bone Bip01_Head
eye_right_bone Bip01_Head
L_forearm L_humerus
L_front_hand L_forearm
L_weapon_bone L_forearm
L_front_hand01_01 L_front_hand
L_front_hand02_01 L_front_hand
L_front_hand03_01 L_front_hand
L_front_hand01_02 L_front_hand01_01
L_front_hand02_02 L_front_hand02_01
L_front_hand03_02 L_front_hand03_01
R_forearm R_humerus
R_front_hand R_forearm
R_weapon_bone R_forearm
R_front_hand01_01 R_front_hand
R_front_hand02_01 R_front_hand
R_front_hand03_01 R_front_hand
R_front_hand01_02 R_front_hand01_01
R_front_hand02_02 R_front_hand02_01
R_front_hand03_02 R_front_hand03_01
null_rope01_connect L_mid_tent01
Rope1_Seg01 null_rope01_connect
Rope1_Seg02 Rope1_Seg01
Rope1_Seg03 Rope1_Seg02
Rope1_Seg04 Rope1_Seg03
Rope1_Seg05 Rope1_Seg04
Rope1_Seg06 Rope1_Seg05
Rope1_Seg07 Rope1_Seg06
Rope1_Seg09 Rope1_Seg07
L_mid_hand01 Rope1_Seg09
L_mid_hand02 Rope1_Seg09
L_mid_hand03 Rope1_Seg09
null_rope02_connect R_mid_tent01
Rope2_Seg01 null_rope02_connect
Rope2_Seg02 Rope2_Seg01
Rope2_Seg03 Rope2_Seg02
Rope2_Seg04 Rope2_Seg03
Rope2_Seg05 Rope2_Seg04
Rope2_Seg06 Rope2_Seg05
Rope2_Seg07 Rope2_Seg06
Rope2_Seg09 Rope2_Seg07
R_mid_hand01 Rope2_Seg09
R_mid_hand02 Rope2_Seg09
R_mid_hand03 Rope2_Seg09
spine02 spine01
spine03 spine02
pelvis spine03
null_rope03_connect pelvis
null_rope04_connect pelvis
Rope3_Seg01 null_rope03_connect
Rope3_Seg02 Rope3_Seg01
Rope3_Seg03 Rope3_Seg02
Rope3_Seg04 Rope3_Seg03
Rope3_Seg05 Rope3_Seg04
Rope3_Seg06 Rope3_Seg05
Rope3_Seg07 Rope3_Seg06
Rope3_Seg08 Rope3_Seg07
Rope3_Seg09 Rope3_Seg08
R_rear_hand01 Rope3_Seg09
R_rear_hand02 Rope3_Seg09
R_rear_hand03 Rope3_Seg09
Rope4_Seg01 null_rope04_connect
Rope4_Seg02 Rope4_Seg01
Rope4_Seg03 Rope4_Seg02
Rope4_Seg04 Rope4_Seg03
Rope4_Seg05 Rope4_Seg04
Rope4_Seg06 Rope4_Seg05
Rope4_Seg07 Rope4_Seg06
Rope4_Seg08 Rope4_Seg07
Rope4_Seg09 Rope4_Seg08
L_rear_hand01 Rope4_Seg09
L_rear_hand02 Rope4_Seg09
L_rear_hand03 Rope4_Seg09
[BasePosition]
#SegmentName Tx, Ty, Tz, Rx, Ry, Rz, BoneLength
MASTER 0.000000 0.000000 0.000000 -90.000000 0.000000 0.000000 10.000000 
root 0.000000 0.000000 0.000000 0.000000 0.000000 0.000000 10.000000 
chest 0.000000 0.000000 0.000000 0.000000 0.000000 0.000000 10.000000 
L_mid_tent01 0.000000 0.000000 0.000000 0.000000 0.000000 0.000000 10.000000 
R_mid_tent01 0.000000 0.000000 0.000000 0.000000 0.000000 0.000000 10.000000 
spine01 0.000000 0.000000 0.000000 0.000000 0.000000 0.000000 10.000000 
Bip01_Neck 0.000000 0.000000 0.000000 0.000000 0.000000 0.000000 10.000000 
L_humerus 0.000000 0.000000 0.000000 0.000000 0.000000 0.000000 10.000000 
R_humerus 0.000000 0.000000 0.000000 0.000000 0.000000 0.000000 10.000000 
weapon_bone 0.000000 0.000000 0.000000 0.000000 0.000000 0.000000 10.000000 
Bip01_Head 0.000000 0.000000 0.000000 0.000000 0.000000 0.000000 10.000000 
eye_left_bone 0.000000 0.000000 0.000000 0.000000 0.000000 0.000000 10.000000 
eye_right_bone 0.000000 0.000000 0.000000 0.000000 0.000000 0.000000 10.000000 
L_forearm 0.000000 0.000000 0.000000 0.000000 0.000000 0.000000 10.000000 
L_front_hand 0.000000 0.000000 0.000000 0.000000 0.000000 0.000000 10.000000 
L_weapon_bone 0.000000 0.000000 0.000000 0.000000 0.000000 0.000000 10.000000 
L_front_hand01_01 0.000000 0.000000 0.000000 0.000000 0.000000 0.000000 10.000000 
L_front_hand02_01 0.000000 0.000000 0.000000 0.000000 0.000000 0.000000 10.000000 
L_front_hand03_01 0.000000 0.000000 0.000000 0.000000 0.000000 0.000000 10.000000 
L_front_hand01_02 0.000000 0.000000 0.000000 0.000000 0.000000 0.000000 10.000000 
L_front_hand02_02 0.000000 0.000000 0.000000 0.000000 0.000000 0.000000 10.000000 
L_front_hand03_02 0.000000 0.000000 0.000000 0.000000 0.000000 0.000000 10.000000 
R_forearm 0.000000 0.000000 0.000000 0.000000 0.000000 0.000000 10.000000 
R_front_hand 0.000000 0.000000 0.000000 0.000000 0.000000 0.000000 10.000000 
R_weapon_bone 0.000000 0.000000 0.000000 0.000000 0.000000 0.000000 10.000000 
R_front_hand01_01 0.000000 0.000000 0.000000 0.000000 0.000000 0.000000 10.000000 
R_front_hand02_01 0.000000 0.000000 0.000000 0.000000 0.000000 0.000000 10.000000 
R_front_hand03_01 0.000000 0.000000 0.000000 0.000000 0.000000 0.000000 10.000000 
R_front_hand01_02 0.000000 0.000000 0.000000 0.000000 0.000000 0.000000 10.000000 
R_front_hand02_02 0.000000 0.000000 0.000000 0.000000 0.000000 0.000000 10.000000 
R_front_hand03_02 0.000000 0.000000 0.000000 0.000000 0.000000 0.000000 10.000000 
null_rope01_connect 0.000000 0.000000 0.000000 0.000000 0.000000 0.000000 10.000000 
Rope1_Seg01 0.000000 0.000000 0.000000 0.000000 0.000000 0.000000 10.000000 
Rope1_Seg02 0.000000 0.000000 0.000000 0.000000 0.000000 0.000000 10.000000 
Rope1_Seg03 0.000000 0.000000 0.000000 0.000000 0.000000 0.000000 10.000000 
Rope1_Seg04 0.000000 0.000000 0.000000 0.000000 0.000000 0.000000 10.000000 
Rope1_Seg05 0.000000 0.000000 0.000000 0.000000 0.000000 0.000000 10.000000 
Rope1_Seg06 0.000000 0.000000 0.000000 0.000000 0.000000 0.000000 10.000000 
Rope1_Seg07 0.000000 0.000000 0.000000 0.000000 0.000000 0.000000 10.000000 
Rope1_Seg09 0.000000 0.000000 0.000000 0.000000 0.000000 0.000000 10.000000 
L_mid_hand01 0.000000 0.000000 0.000000 0.000000 0.000000 0.000000 10.000000 
L_mid_hand02 0.000000 0.000000 0.000000 0.000000 0.000000 0.000000 10.000000 
L_mid_hand03 0.000000 0.000000 0.000000 0.000000 0.000000 0.000000 10.000000 
null_rope02_connect 0.000000 0.000000 0.000000 0.000000 0.000000 0.000000 10.000000 
Rope2_Seg01 0.000000 0.000000 0.000000 0.000000 0.000000 0.000000 10.000000 
Rope2_Seg02 0.000000 0.000000 0.000000 0.000000 0.000000 0.000000 10.000000 
Rope2_Seg03 0.000000 0.000000 0.000000 0.000000 0.000000 0.000000 10.000000 
Rope2_Seg04 0.000000 0.000000 0.000000 0.000000 0.000000 0.000000 10.000000 
Rope2_Seg05 0.000000 0.000000 0.000000 0.000000 0.000000 0.000000 10.000000 
Rope2_Seg06 0.000000 0.000000 0.000000 0.000000 0.000000 0.000000 10.000000 
Rope2_Seg07 0.000000 0.000000 0.000000 0.000000 0.000000 0.000000 10.000000 
Rope2_Seg09 0.000000 0.000000 0.000000 0.000000 0.000000 0.000000 10.000000 
R_mid_hand01 0.000000 0.000000 0.000000 0.000000 0.000000 0.000000 10.000000 
R_mid_hand02 0.000000 0.000000 0.000000 0.000000 0.000000 0.000000 10.000000 
R_mid_hand03 0.000000 0.000000 0.000000 0.000000 0.000000 0.000000 10.000000 
spine02 0.000000 0.000000 0.000000 0.000000 0.000000 0.000000 10.000000 
spine03 0.000000 0.000000 0.000000 0.000000 0.000000 0.000000 10.000000 
pelvis 0.000000 0.000000 0.000000 0.000000 0.000000 0.000000 10.000000 
null_rope03_connect 0.000000 0.000000 0.000000 0.000000 0.000000 0.000000 10.000000 
null_rope04_connect 0.000000 0.000000 0.000000 0.000000 0.000000 0.000000 10.000000 
Rope3_Seg01 0.000000 0.000000 0.000000 0.000000 0.000000 0.000000 10.000000 
Rope3_Seg02 0.000000 0.000000 0.000000 0.000000 0.000000 0.000000 10.000000 
Rope3_Seg03 0.000000 0.000000 0.000000 0.000000 0.000000 0.000000 10.000000 
Rope3_Seg04 0.000000 0.000000 0.000000 0.000000 0.000000 0.000000 10.000000 
Rope3_Seg05 0.000000 0.000000 0.000000 0.000000 0.000000 0.000000 10.000000 
Rope3_Seg06 0.000000 0.000000 0.000000 0.000000 0.000000 0.000000 10.000000 
Rope3_Seg07 0.000000 0.000000 0.000000 0.000000 0.000000 0.000000 10.000000 
Rope3_Seg08 0.000000 0.000000 0.000000 0.000000 0.000000 0.000000 10.000000 
Rope3_Seg09 0.000000 0.000000 0.000000 0.000000 0.000000 0.000000 10.000000 
R_rear_hand01 0.000000 0.000000 0.000000 0.000000 0.000000 0.000000 10.000000 
R_rear_hand02 0.000000 0.000000 0.000000 0.000000 0.000000 0.000000 10.000000 
R_rear_hand03 0.000000 0.000000 0.000000 0.000000 0.000000 0.000000 10.000000 
Rope4_Seg01 0.000000 0.000000 0.000000 0.000000 0.000000 0.000000 10.000000 
Rope4_Seg02 0.000000 0.000000 0.000000 0.000000 0.000000 0.000000 10.000000 
Rope4_Seg03 0.000000 0.000000 0.000000 0.000000 0.000000 0.000000 10.000000 
Rope4_Seg04 0.000000 0.000000 0.000000 0.000000 0.000000 0.000000 10.000000 
Rope4_Seg05 0.000000 0.000000 0.000000 0.000000 0.000000 0.000000 10.000000 
Rope4_Seg06 0.000000 0.000000 0.000000 0.000000 0.000000 0.000000 10.000000 
Rope4_Seg07 0.000000 0.000000 0.000000 0.000000 0.000000 0.000000 10.000000 
Rope4_Seg08 0.000000 0.000000 0.000000 0.000000 0.000000 0.000000 10.000000 
Rope4_Seg09 0.000000 0.000000 0.000000 0.000000 0.000000 0.000000 10.000000 
L_rear_hand01 0.000000 0.000000 0.000000 0.000000 0.000000 0.000000 10.000000 
L_rear_hand02 0.000000 0.000000 0.000000 0.000000 0.000000 0.000000 10.000000 
L_rear_hand03 0.000000 0.000000 0.000000 0.000000 0.000000 0.000000 10.000000 
#Beginning of Data. Separated by tabs
#Fr	Tx	Ty	Tz	Rx	Ry	Rz	SF
[MASTER]
26 0.000000 0.000000 0.000000 0.001660 0.001660 0.001660 0.000000
27 0.000000 0.000000 0.000000 0.001660 0.001660 0.001660 0.000000
[root]
26 -42.666271 -5.273740 1140.314941 -88.458244 -33.861217 -88.231926 1141.125000
27 -37.984524 -7.243099 1130.071777 -88.764404 -35.129734 -88.555931 1130.733154
[chest]
26 -84.512650 -34.090519 0.000000 1.303990 -1.290821 -139.750992 91.129311
27 -84.512650 -34.090519 0.000000 1.434738 -1.412848 -137.882217 91.129311
[L_mid_tent01]
26 27.299500 22.177483 -249.917984 -9.531663 7.151341 57.021141 252.380859
27 27.299500 22.177483 -249.917984 -10.556717 3.118461 54.509674 252.380859
[R_mid_tent01]
26 23.228794 24.509907 226.238495 -175.972275 -17.055943 59.085964 228.744751
27 23.228794 24.509907 226.238495 -174.497421 -12.354681 56.768566 228.744751
[spine01]
26 -0.361383 -0.195265 0.000000 0.001909 0.001367 18.792997 0.410763
27 -0.361383 -0.195265 0.000000 0.001911 0.001365 18.923388 0.410763
[Bip01_Neck]
26 165.484543 71.581718 0.000119 175.896118 1.177290 24.871183 180.302734
27 165.484543 71.581718 0.000119 175.896118 1.177290 24.871183 180.302734
[L_humerus]
26 -13.983130 -135.272980 -120.471481 -148.718781 1.682621 -83.656570 181.680161
27 -13.983130 -135.272980 -120.471481 -131.359299 0.681409 -81.647980 181.680161
[R_humerus]
26 -13.983309 -135.273102 125.287651 151.948563 -4.373825 -82.950737 184.909012
27 -13.983309 -135.273102 125.287651 136.769348 -4.898339 -79.809845 184.909012
[weapon_bone]
26 235.964890 -300.705902 0.000000 0.000000 -89.951546 -128.212341 382.234833
27 235.964890 -300.705902 0.000000 0.000000 -89.951546 -128.212341 382.234833
[Bip01_Head]
26 102.819786 23.735580 5.410274 3.150731 3.423701 -20.839088 105.662468
27 102.819786 23.735575 5.410279 3.150732 3.423701 -20.839092 105.662468
[eye_left_bone]
26 -24.626970 125.451866 -64.772606 0.000000 -90.000000 -99.840431 143.318359
27 -24.626970 125.451866 -64.772606 0.000000 -90.000000 -99.840431 143.318359
[eye_right_bone]
26 -24.626970 125.451866 64.327362 0.000000 -89.960434 80.159386 143.117676
27 -24.626970 125.451866 64.327362 0.000000 -89.960434 80.159386 143.117676
[L_forearm]
26 322.776093 0.000000 -0.000119 0.000219 0.002337 -79.281693 322.776093
27 322.776093 0.000000 -0.000119 0.000211 0.002338 -79.672913 322.776093
[L_front_hand]
26 241.149185 -0.042021 -3.300071 -177.807297 0.579909 -96.195419 241.171753
27 241.149185 -0.042021 -3.300071 -177.792358 0.526011 -94.826645 241.171753
[L_weapon_bone]
26 156.183838 0.000000 0.000000 0.002023 0.001191 29.035913 156.183838
27 156.183838 0.000000 0.000000 0.002037 0.001166 30.422615 156.183838
[L_front_hand01_01]
26 86.095154 20.947098 -0.655860 0.405585 -0.442306 -4.620490 88.609184
27 86.095154 20.947098 -0.655860 0.405585 -0.442306 -4.620490 88.609184
[L_front_hand02_01]
26 86.935165 -11.437475 24.513514 116.959450 3.630817 1.495453 91.046425
27 86.935165 -11.437475 24.513514 116.959465 3.630818 1.495453 91.046425
[L_front_hand03_01]
26 86.637497 -14.123976 -20.424902 -118.420097 -4.656303 -0.152527 90.126129
27 86.637497 -14.123976 -20.424902 -118.420097 -4.656303 -0.152527 90.126129
[L_front_hand01_02]
26 71.020905 -0.000179 0.000030 0.001534 0.001777 -8.378851 71.020905
27 71.020905 -0.000179 0.000030 0.001534 0.001777 -8.378850 71.020905
[L_front_hand02_02]
26 71.020927 -0.000119 0.000060 0.001534 0.001777 -8.378851 71.020927
27 71.020927 -0.000119 0.000060 0.001534 0.001777 -8.378850 71.020927
[L_front_hand03_02]
26 71.020905 -0.000060 0.000060 0.001534 0.001777 -8.378851 71.020905
27 71.020905 -0.000060 0.000060 0.001534 0.001777 -8.378850 71.020905
[R_forearm]
26 322.776428 -0.000060 0.000030 0.210868 -0.039126 -80.824432 322.776428
27 322.776428 -0.000060 0.000030 0.207960 -0.033564 -81.815392 322.776428
[R_front_hand]
26 238.847015 -0.006795 2.210259 -1.699506 -0.297498 -88.756134 238.857239
27 238.847015 -0.006795 2.210259 -1.699765 -0.297836 -88.760933 238.857239
[R_weapon_bone]
26 155.664093 0.002503 -0.000030 0.003238 0.001750 -110.392593 155.664078
27 155.664093 0.002503 -0.000030 0.003215 0.001792 -111.873703 155.664078
[R_front_hand01_01]
26 87.624611 14.231146 22.918642 -116.960205 3.496675 -1.324138 91.683487
27 87.624611 14.231146 22.918642 -116.960205 3.496675 -1.324138 91.683487
[R_front_hand02_01]
26 89.356956 14.367283 -19.491137 118.419647 -4.257089 0.609827 92.579636
27 89.356956 14.367283 -19.491137 118.419647 -4.257089 0.609827 92.579636
[R_front_hand03_01]
26 87.286232 -22.307278 -0.143439 -0.387970 -0.231462 4.232001 90.091743
27 87.286232 -22.307278 -0.143439 -0.387970 -0.231462 4.232001 90.091743
[R_front_hand01_02]
26 71.020905 0.000060 0.000119 0.001777 0.001534 8.377220 71.020905
27 71.020905 0.000060 0.000119 0.001777 0.001534 8.377221 71.020905
[R_front_hand02_02]
26 71.020844 -0.000030 -0.000119 0.001777 0.001534 8.377220 71.020836
27 71.020844 -0.000030 -0.000119 0.001777 0.001534 8.377221 71.020836
[R_front_hand03_02]
26 71.020905 0.000000 0.000030 0.001777 0.001534 8.377220 71.020905
27 71.020905 0.000000 0.000030 0.001777 0.001534 8.377221 71.020905
[null_rope01_connect]
26 328.732483 0.000000 -0.000238 -179.154541 -79.708374 -114.388947 328.732483
27 328.732483 0.000000 -0.000238 164.716293 -79.650688 -94.186592 328.732483
[Rope1_Seg01]
26 0.000000 0.000000 0.000000 121.431732 19.658094 179.286377 0.000000
27 0.000000 0.000000 0.000000 122.547607 20.433990 -176.921677 0.000000
[Rope1_Seg02]
26 139.999863 -0.000179 0.000000 5.484314 -16.729940 1.556928 139.999863
27 139.999863 -0.000179 0.000000 5.356210 -13.278357 1.286905 139.999863
[Rope1_Seg03]
26 139.999924 0.000060 -0.000060 3.644552 -34.972458 0.767585 139.999924
27 139.999924 0.000060 -0.000060 5.251774 -30.584263 2.301760 139.999924
[Rope1_Seg04]
26 139.999924 -0.000060 -0.000119 -7.265918 -29.352879 6.928312 139.999924
27 139.999924 -0.000060 -0.000119 -5.576924 -35.674988 4.648012 139.999924
[Rope1_Seg05]
26 139.999832 0.000119 -0.000060 13.432203 -12.696469 34.348919 139.999832
27 139.999832 0.000119 -0.000060 8.048720 -14.440454 34.413818 139.999832
[Rope1_Seg06]
26 139.999954 0.000119 -0.000060 41.860329 -1.647705 21.183033 139.999954
27 139.999954 0.000119 -0.000060 52.192200 -2.723006 27.691978 139.999954
[Rope1_Seg07]
26 139.999985 0.000060 0.000000 26.794344 4.322275 7.139489 139.999985
27 139.999985 0.000060 0.000000 28.015064 5.953153 7.503030 139.999985
[Rope1_Seg09]
26 121.602913 0.000119 -0.000089 -89.793175 -1.359789 0.847147 121.602913
27 121.602913 0.000119 -0.000089 -89.793175 -1.359789 0.847147 121.602913
[L_mid_hand01]
26 103.859421 1.038730 8.195221 105.075500 -17.580374 -5.184222 104.187431
27 103.859421 1.038730 8.195221 104.987663 -16.512257 -4.884617 104.187431
[L_mid_hand02]
26 105.572853 -4.139662 -10.864139 -138.079727 16.634945 -17.085865 106.211075
27 105.572853 -4.139662 -10.864139 -137.840240 15.893410 -16.229145 106.211075
[L_mid_hand03]
26 104.641464 17.579376 -3.913581 -17.955540 5.553896 20.528454 106.179977
27 104.641464 17.579376 -3.913581 -18.054873 5.211256 19.471460 106.179977
[null_rope02_connect]
26 328.732849 0.000179 -0.000119 -126.989571 69.630692 -11.039453 328.732849
27 328.732849 0.000179 -0.000119 -132.860733 74.245438 -20.516075 328.732849
[Rope2_Seg01]
26 0.000095 0.000153 0.000038 -59.828743 20.154459 1.394600 0.000184
27 0.000095 0.000153 0.000040 -59.654457 19.508589 -1.261394 0.000184
[Rope2_Seg02]
26 139.999741 -0.000060 -0.000119 -8.643821 -6.850472 13.425918 139.999756
27 139.999741 -0.000060 -0.000119 -8.030749 -5.527861 11.147018 139.999756
[Rope2_Seg03]
26 140.000107 0.000030 0.000000 -12.320679 -10.517922 30.146250 140.000107
27 140.000107 0.000030 0.000000 -12.601465 -10.668910 26.458038 140.000107
[Rope2_Seg04]
26 139.999802 0.000000 -0.000060 -3.831952 -22.532934 21.371422 139.999802
27 139.999802 0.000000 -0.000060 -6.105494 -18.801590 30.088787 139.999802
[Rope2_Seg05]
26 139.999985 -0.000060 0.000119 -17.613953 -43.793213 -20.796103 139.999985
27 139.999985 -0.000060 0.000119 -13.727238 -46.368198 -20.478367 139.999985
[Rope2_Seg06]
26 139.999893 -0.000030 -0.000119 -16.139458 -12.075642 -11.371854 139.999893
27 139.999893 -0.000030 -0.000119 -21.083883 -16.650677 -16.216763 139.999893
[Rope2_Seg07]
26 139.999893 0.000060 -0.000060 -7.164519 -3.518330 -5.188871 139.999893
27 139.999893 0.000060 -0.000060 -7.713930 -3.633326 -6.119481 139.999893
[Rope2_Seg09]
26 121.338966 0.000089 -0.000060 33.793236 -1.359788 -0.847141 121.338966
27 121.338966 0.000089 -0.000060 33.793236 -1.359788 -0.847141 121.338966
[R_mid_hand01]
26 104.680779 11.144459 -10.335981 -45.380390 15.703770 17.681168 105.778534
27 104.680779 11.144459 -10.335981 -45.581078 14.957322 16.920376 105.778534
[R_mid_hand02]
26 104.070427 2.443552 8.231699 74.771202 -19.212929 5.651595 104.424065
27 104.070427 2.443552 8.231699 74.863281 -18.201492 5.361881 104.424065
[R_mid_hand03]
26 106.028137 -11.221827 -5.996406 -165.805542 7.037743 -23.137884 106.788818
27 106.028137 -11.221827 -5.996406 -165.681915 6.779714 -22.114233 106.788818
[spine02]
26 129.756927 0.001550 0.000119 -1.278880 -3.881192 10.342534 129.756927
27 129.756927 0.001550 0.000119 -1.327282 -3.870918 11.044888 129.756927
[spine03]
26 78.864677 0.043640 -2.449397 -0.673476 4.603089 -17.411230 78.902718
27 78.874718 0.041895 -2.351421 -0.660354 4.645057 -17.180891 78.909767
[pelvis]
26 169.435242 0.051022 0.000000 -3.551597 -1.772697 5.997629 169.435257
27 169.435242 0.051022 0.000000 -3.697877 -1.825765 6.316086 169.435257
[null_rope03_connect]
26 -1.257226 -2.466202 137.391083 140.331039 -85.960075 -34.043804 137.418976
27 -1.257226 -2.466202 137.391083 149.832001 -85.879631 -43.656273 137.418976
[null_rope04_connect]
26 -1.259640 -2.480268 -137.844437 140.331039 -85.960075 -34.043804 137.872513
27 -1.259640 -2.480268 -137.844437 149.832001 -85.879631 -43.656273 137.872513
[Rope3_Seg01]
26 0.000000 0.000000 0.000000 -130.763611 3.304845 -80.089493 0.000000
27 0.000000 0.000000 0.000000 -131.575119 10.629745 -81.934792 0.000000
[Rope3_Seg02]
26 139.999924 -0.000119 0.000060 -165.208221 -48.244648 -127.579674 139.999924
27 139.999924 -0.000119 0.000060 -170.835983 -61.666290 -143.220947 139.999924
[Rope3_Seg03]
26 139.999924 -0.000119 0.000119 20.867489 -11.756628 46.521114 139.999924
27 139.999924 -0.000119 0.000119 20.224279 -28.700718 41.495495 139.999924
[Rope3_Seg04]
26 139.999924 0.000119 0.000000 1.199192 0.963914 8.507103 139.999924
27 139.999924 0.000119 0.000000 1.742150 -0.824846 9.924033 139.999924
[Rope3_Seg05]
26 139.999924 -0.000238 0.000060 0.414597 0.455630 3.065101 139.999924
27 139.999924 -0.000238 0.000060 0.572939 -0.239379 3.670849 139.999924
[Rope3_Seg06]
26 139.999893 -0.000119 -0.000060 0.550892 0.303995 1.932063 139.999893
27 139.999893 -0.000119 -0.000060 0.627297 -0.129635 2.295944 139.999893
[Rope3_Seg07]
26 139.999771 0.000060 -0.000119 0.583054 0.227187 1.362931 139.999771
27 139.999771 0.000060 -0.000119 0.628820 -0.071526 1.618587 139.999771
[Rope3_Seg08]
26 139.999985 -0.000060 0.000000 0.576559 0.155560 0.867958 139.999985
27 139.999985 -0.000060 0.000000 0.604758 -0.033458 1.030215 139.999985
[Rope3_Seg09]
26 90.185997 -0.000179 -0.000060 89.793228 -1.359877 -0.847183 90.185997
27 90.185997 -0.000179 -0.000060 89.793228 -1.359877 -0.847183 90.185997
[R_rear_hand01]
26 103.366196 -6.073594 -10.757982 -158.469391 12.328918 -17.832153 104.101845
27 103.366196 -6.073594 -10.757982 -158.275955 11.974235 -16.916492 104.101845
[R_rear_hand02]
26 100.509819 12.039542 -7.992327 -37.154343 11.892236 18.233232 101.543350
27 100.509819 12.039542 -7.992327 -37.311905 11.310635 17.452057 101.543350
[R_rear_hand03]
26 101.539970 5.215704 5.435467 84.007385 -18.375587 5.758972 101.819031
27 101.539970 5.215704 5.435467 84.039063 -17.418911 5.654309 101.819031
[Rope4_Seg01]
26 0.000000 0.000000 0.000000 54.738548 27.200678 -86.898918 0.000000
27 0.000000 0.000000 0.000000 58.151672 33.529995 -85.010597 0.000000
[Rope4_Seg02]
26 139.999985 0.000060 0.000119 5.160219 -45.436615 -116.543915 139.999985
27 139.999985 0.000060 0.000119 9.285876 -35.083122 -103.585495 139.999985
[Rope4_Seg03]
26 139.999924 0.000000 -0.000238 -84.852150 23.238672 -53.687637 139.999924
27 139.999924 0.000000 -0.000238 -78.075157 11.841314 -61.165607 139.999924
[Rope4_Seg04]
26 139.999985 0.000000 0.000119 2.169975 7.482421 7.624231 139.999985
27 139.999985 0.000000 0.000119 1.347918 7.326640 5.908961 139.999985
[Rope4_Seg05]
26 139.999802 -0.000060 -0.000119 0.342351 2.721308 2.053050 139.999802
27 139.999802 -0.000060 -0.000119 0.168316 2.784373 1.564185 139.999802
[Rope4_Seg06]
26 139.999924 0.000000 0.000060 0.243623 1.725146 1.286434 139.999924
27 139.999924 0.000000 0.000060 0.150529 1.776013 0.988315 139.999924
[Rope4_Seg07]
26 139.999802 0.000000 0.000000 0.218906 1.211700 0.899205 139.999802
27 139.999802 0.000000 0.000000 0.162622 1.256929 0.695887 139.999802
[Rope4_Seg08]
26 139.999924 0.000000 0.000119 -1.404139 0.770302 0.565980 139.999924
27 139.999924 0.000000 0.000119 -1.439487 0.798599 0.441729 139.999924
[Rope4_Seg09]
26 90.185791 0.000060 0.000060 -135.617828 2.228885 0.850567 90.185791
27 90.185791 0.000060 0.000060 -135.617828 2.228885 0.850567 90.185791
[L_rear_hand01]
26 101.696655 -8.392275 -7.654577 -37.469475 -10.696674 163.369186 102.329041
27 101.696655 -8.392275 -7.654577 -37.622391 -10.053932 164.219559 102.329041
[L_rear_hand02]
26 102.726799 -1.568258 5.773216 84.069489 16.406517 174.458176 102.900848
27 102.726799 -1.568258 5.773216 84.100052 15.358920 174.571014 102.900848
[L_rear_hand03]
26 104.552910 9.721220 -10.420293 -158.079468 -11.598392 -164.048355 105.519653
27 104.552910 9.721220 -10.420293 -157.882034 -11.202723 -165.045746 105.519653
